<?xml version="1.0" encoding="utf-8" standalone="no"?>
<!DOCTYPE svg PUBLIC "-//W3C//DTD SVG 1.1//EN"
  "http://www.w3.org/Graphics/SVG/1.1/DTD/svg11.dtd">
<svg xmlns:xlink="http://www.w3.org/1999/xlink" width="907.2pt" height="568.8pt" viewBox="0 0 907.2 568.8" xmlns="http://www.w3.org/2000/svg" version="1.1">
 <metadata>
  <rdf:RDF xmlns:dc="http://purl.org/dc/elements/1.1/" xmlns:cc="http://creativecommons.org/ns#" xmlns:rdf="http://www.w3.org/1999/02/22-rdf-syntax-ns#">
   <cc:Work>
    <dc:type rdf:resource="http://purl.org/dc/dcmitype/StillImage"/>
    <dc:date>2026-04-05T23:22:46.795052</dc:date>
    <dc:format>image/svg+xml</dc:format>
    <dc:creator>
     <cc:Agent>
      <dc:title>Matplotlib v3.10.1, https://matplotlib.org/</dc:title>
     </cc:Agent>
    </dc:creator>
   </cc:Work>
  </rdf:RDF>
 </metadata>
 <defs>
  <style type="text/css">*{stroke-linejoin: round; stroke-linecap: butt}</style>
 </defs>
 <g id="figure_1">
  <g id="patch_1">
   <path d="M 0 568.8 
L 907.2 568.8 
L 907.2 0 
L 0 0 
L 0 568.8 
z
" style="fill: none; opacity: 0"/>
  </g>
  <g id="axes_1">
   <g id="patch_2">
    <path d="M 174.6 201.24 
C 181.999166 201.24 189.096278 198.319246 194.328279 193.121 
C 199.56028 187.922754 202.5 180.87143 202.5 173.52 
C 202.5 166.16857 199.56028 159.117246 194.328279 153.919 
C 189.096278 148.720754 181.999166 145.8 174.6 145.8 
C 167.200834 145.8 160.103722 148.720754 154.871721 153.919 
C 149.63972 159.117246 146.7 166.16857 146.7 173.52 
C 146.7 180.87143 149.63972 187.922754 154.871721 193.121 
C 160.103722 198.319246 167.200834 201.24 174.6 201.24 
z
" clip-path="url(#p208e7082fe)" style="fill: #ffffff; stroke: #0072bd; stroke-width: 2; stroke-linejoin: miter"/>
   </g>
   <g id="patch_3">
    <path d="M 342 90.36 
C 349.399166 90.36 356.496278 87.439246 361.728279 82.241 
C 366.96028 77.042754 369.9 69.99143 369.9 62.64 
C 369.9 55.28857 366.96028 48.237246 361.728279 43.039 
C 356.496278 37.840754 349.399166 34.92 342 34.92 
C 334.600834 34.92 327.503722 37.840754 322.271721 43.039 
C 317.03972 48.237246 314.1 55.28857 314.1 62.64 
C 314.1 69.99143 317.03972 77.042754 322.271721 82.241 
C 327.503722 87.439246 334.600834 90.36 342 90.36 
z
" clip-path="url(#p208e7082fe)" style="fill: #ffffff; stroke: #0072bd; stroke-width: 2; stroke-linejoin: miter"/>
   </g>
   <g id="patch_4">
    <path d="M 342 312.12 
C 349.399166 312.12 356.496278 309.199246 361.728279 304.001 
C 366.96028 298.802754 369.9 291.75143 369.9 284.4 
C 369.9 277.04857 366.96028 269.997246 361.728279 264.799 
C 356.496278 259.600754 349.399166 256.68 342 256.68 
C 334.600834 256.68 327.503722 259.600754 322.271721 264.799 
C 317.03972 269.997246 314.1 277.04857 314.1 284.4 
C 314.1 291.75143 317.03972 298.802754 322.271721 304.001 
C 327.503722 309.199246 334.600834 312.12 342 312.12 
z
" clip-path="url(#p208e7082fe)" style="fill: #ffffff; stroke: #0072bd; stroke-width: 2; stroke-linejoin: miter"/>
   </g>
   <g id="patch_5">
    <path d="M 565.2 90.36 
C 572.599166 90.36 579.696278 87.439246 584.928279 82.241 
C 590.16028 77.042754 593.1 69.99143 593.1 62.64 
C 593.1 55.28857 590.16028 48.237246 584.928279 43.039 
C 579.696278 37.840754 572.599166 34.92 565.2 34.92 
C 557.800834 34.92 550.703722 37.840754 545.471721 43.039 
C 540.23972 48.237246 537.3 55.28857 537.3 62.64 
C 537.3 69.99143 540.23972 77.042754 545.471721 82.241 
C 550.703722 87.439246 557.800834 90.36 565.2 90.36 
z
" clip-path="url(#p208e7082fe)" style="fill: #ffffff; stroke: #0072bd; stroke-width: 2; stroke-linejoin: miter"/>
   </g>
   <g id="patch_6">
    <path d="M 565.2 312.12 
C 572.599166 312.12 579.696278 309.199246 584.928279 304.001 
C 590.16028 298.802754 593.1 291.75143 593.1 284.4 
C 593.1 277.04857 590.16028 269.997246 584.928279 264.799 
C 579.696278 259.600754 572.599166 256.68 565.2 256.68 
C 557.800834 256.68 550.703722 259.600754 545.471721 264.799 
C 540.23972 269.997246 537.3 277.04857 537.3 284.4 
C 537.3 291.75143 540.23972 298.802754 545.471721 304.001 
C 550.703722 309.199246 557.800834 312.12 565.2 312.12 
z
" clip-path="url(#p208e7082fe)" style="fill: #ffffff; stroke: #0072bd; stroke-width: 2; stroke-linejoin: miter"/>
   </g>
   <g id="patch_7">
    <path d="M 732.6 201.24 
C 739.999166 201.24 747.096278 198.319246 752.328279 193.121 
C 757.56028 187.922754 760.5 180.87143 760.5 173.52 
C 760.5 166.16857 757.56028 159.117246 752.328279 153.919 
C 747.096278 148.720754 739.999166 145.8 732.6 145.8 
C 725.200834 145.8 718.103722 148.720754 712.871721 153.919 
C 707.63972 159.117246 704.7 166.16857 704.7 173.52 
C 704.7 180.87143 707.63972 187.922754 712.871721 193.121 
C 718.103722 198.319246 725.200834 201.24 732.6 201.24 
z
" clip-path="url(#p208e7082fe)" style="fill: #ffffff; stroke: #0072bd; stroke-width: 2; stroke-linejoin: miter"/>
   </g>
   <g id="patch_8">
    <path d="M 204.152135 172.400812 
Q 263.876334 131.942484 321.74925 92.73825 
" style="fill: none; stroke: #0072bd; stroke-width: 2; stroke-linecap: round"/>
    <path d="M 317.315879 93.325805 
L 321.74925 92.73825 
L 319.559272 96.63748 
" style="fill: none; stroke: #0072bd; stroke-width: 2; stroke-linecap: round"/>
   </g>
   <g id="patch_9">
    <path d="M 204.152135 174.639188 
Q 263.876334 215.097516 321.74925 254.30175 
" style="fill: none; stroke: #0072bd; stroke-width: 2; stroke-linecap: round"/>
    <path d="M 319.559272 250.40252 
L 321.74925 254.30175 
L 317.315879 253.714195 
" style="fill: none; stroke: #0072bd; stroke-width: 2; stroke-linecap: round"/>
   </g>
   <g id="patch_10">
    <path d="M 360.740374 62.64 
Q 453.599088 62.64 544.221734 62.64 
" style="fill: none; stroke: #0072bd; stroke-width: 2; stroke-linecap: round"/>
    <path d="M 540.221734 60.64 
L 544.221734 62.64 
L 540.221734 64.64 
" style="fill: none; stroke: #0072bd; stroke-width: 2; stroke-linecap: round"/>
   </g>
   <g id="patch_11">
    <path d="M 360.740374 284.4 
Q 453.599088 284.4 544.221734 284.4 
" style="fill: none; stroke: #0072bd; stroke-width: 2; stroke-linecap: round"/>
    <path d="M 540.221734 282.4 
L 544.221734 284.4 
L 540.221734 286.4 
" style="fill: none; stroke: #0072bd; stroke-width: 2; stroke-linecap: round"/>
   </g>
   <g id="patch_12">
    <path d="M 550.093063 63.798948 
Q 626.581457 118.081034 701.246322 171.069003 
" style="fill: none; stroke: #0072bd; stroke-width: 2; stroke-linecap: round"/>
    <path d="M 699.141788 167.123001 
L 701.246322 171.069003 
L 696.8268 170.385029 
" style="fill: none; stroke: #0072bd; stroke-width: 2; stroke-linecap: round"/>
   </g>
   <g id="patch_13">
    <path d="M 550.093063 283.241052 
Q 626.581457 228.958966 701.246322 175.970997 
" style="fill: none; stroke: #0072bd; stroke-width: 2; stroke-linecap: round"/>
    <path d="M 696.8268 176.654971 
L 701.246322 175.970997 
L 699.141788 179.916999 
" style="fill: none; stroke: #0072bd; stroke-width: 2; stroke-linecap: round"/>
   </g>
   <g id="patch_14">
    <path d="M 174.6 230.959819 
Q 174.6 256.680189 174.6 280.164492 
" style="fill: none; stroke: #009e73; stroke-width: 2; stroke-linecap: round"/>
    <path d="M 176.6 276.164492 
L 174.6 280.164492 
L 172.6 276.164492 
" style="fill: none; stroke: #009e73; stroke-width: 2; stroke-linecap: round"/>
   </g>
   <g id="text_1">
    <!-- اﺮﺘﺴﻜﻳد ﺔﻴﻣزراﻮﺧ -->
    <g style="fill: #0072bd" transform="translate(371.06125 42.158438) scale(0.28 -0.28)">
     <defs>
      <path id="ArialMT-627" d="M 1056 1713 
Q 1056 1463 966 1228 
Q 919 1103 763 831 
L 706 863 
Q 716 953 723 1072 
Q 731 1191 731 1231 
Q 731 1556 679 2139 
Q 628 2722 556 3356 
Q 513 3741 459 4141 
Q 522 4278 601 4437 
Q 681 4597 753 4738 
Q 803 4381 879 3762 
Q 956 3144 1000 2647 
Q 1056 2028 1056 1713 
z
" transform="scale(0.015625)"/>
      <path id="ArialMT-feae" d="M 3128 916 
Q 3128 572 2834 203 
Q 2578 -122 2197 -356 
Q 1834 -581 1600 -581 
Q 1384 -581 1134 -519 
Q 944 -472 678 -372 
Q 453 -288 231 -203 
L 284 -78 
Q 491 -119 714 -161 
Q 938 -203 1119 -203 
Q 1519 -203 1953 53 
Q 2347 288 2625 645 
Q 2903 1003 2903 1291 
Q 2903 1538 2759 1809 
Q 2644 2028 2434 2259 
L 2613 2750 
Q 2869 2513 2991 2275 
Q 3128 2006 3128 1675 
L 3128 916 
z
" transform="scale(0.015625)"/>
      <path id="ArialMT-fe98" d="M 1563 916 
L -219 916 
L -219 1459 
L 1334 1459 
Q 1334 1828 1247 2022 
Q 1188 2156 953 2409 
L 1197 2919 
Q 1422 2634 1478 2475 
Q 1563 2234 1563 1678 
L 1563 916 
z
M 1545 4015 
L 1313 3562 
L 801 3824 
L 1038 4278 
L 1545 4015 
z
M 832 3724 
L 598 3277 
L 82 3543 
L 326 3993 
L 832 3724 
z
" transform="scale(0.015625)"/>
      <path id="ArialMT-feb4" d="M 3397 916 
L 3156 916 
Q 2956 916 2812 970 
Q 2669 1025 2550 1125 
Q 2403 1009 2294 972 
Q 2134 916 1856 916 
L 1653 916 
Q 1491 916 1328 978 
Q 1222 1019 1066 1113 
Q 916 1000 791 958 
Q 666 916 384 916 
L -219 916 
L -219 1459 
L 384 1459 
Q 638 1459 747 1503 
Q 928 1575 928 1791 
Q 928 1881 918 1972 
Q 909 2063 884 2175 
L 1013 2363 
Q 1100 2075 1156 1944 
Q 1256 1716 1375 1600 
Q 1519 1459 1719 1459 
L 1928 1459 
Q 2163 1459 2275 1531 
Q 2400 1613 2400 1791 
Q 2400 1888 2387 1978 
Q 2375 2069 2353 2175 
L 2484 2363 
L 2550 2069 
Q 2634 1722 2756 1588 
Q 2863 1469 3044 1469 
Q 3128 1469 3179 1520 
Q 3231 1572 3231 1653 
Q 3231 1828 3103 2022 
Q 3081 2053 2950 2225 
L 3153 2566 
Q 3281 2372 3328 2231 
Q 3397 2019 3397 1666 
L 3397 916 
z
" transform="scale(0.015625)"/>
      <path id="ArialMT-fedc" d="M 2522 916 
L -219 916 
L -219 1459 
L 2159 1459 
Q 1941 1791 1659 2036 
Q 1378 2281 900 2566 
L 797 2469 
L 428 2750 
Q 234 2913 234 3003 
Q 234 3541 497 3847 
Q 741 4128 1338 4353 
L 2219 4697 
L 2219 4156 
L 1566 3938 
Q 1175 3809 934 3703 
Q 628 3569 628 3497 
Q 628 3425 828 3275 
Q 953 3181 1081 3088 
Q 1556 2728 1909 2334 
Q 2291 1913 2522 1459 
L 2522 916 
z
" transform="scale(0.015625)"/>
      <path id="ArialMT-fef3" d="M 1563 916 
L -219 916 
L -219 1459 
L 1334 1459 
Q 1334 1828 1247 2022 
Q 1188 2156 953 2409 
L 1197 2919 
Q 1422 2634 1478 2475 
Q 1563 2234 1563 1678 
L 1563 916 
z
M 1537 303 
L 1305 -150 
L 793 112 
L 1030 566 
L 1537 303 
z
M 824 12 
L 590 -435 
L 74 -169 
L 318 281 
L 824 12 
z
" transform="scale(0.015625)"/>
      <path id="ArialMT-62f" d="M 2159 916 
L 759 916 
Q 581 916 439 1019 
Q 297 1122 297 1263 
Q 297 1381 309 1478 
Q 322 1575 356 1691 
L 428 1691 
Q 463 1563 553 1506 
Q 628 1459 759 1459 
L 1969 1459 
Q 1969 2019 1813 2359 
Q 1619 2784 1166 2925 
L 1213 3531 
Q 1753 3266 1978 2684 
Q 2159 2216 2159 1459 
L 2159 916 
z
" transform="scale(0.015625)"/>
      <path id="ArialMT-20" transform="scale(0.015625)"/>
      <path id="ArialMT-fe94" d="M 2400 916 
L 1953 916 
Q 1728 916 1556 1300 
Q 1428 1588 1350 2041 
Q 1256 1866 1112 1769 
Q 969 1672 809 1672 
Q 450 1672 211 1720 
Q -28 1769 -28 1844 
Q -28 2113 322 2439 
Q 672 2766 1197 3009 
Q 1191 3034 1170 3140 
Q 1150 3247 1150 3272 
Q 1150 3378 1222 3509 
Q 1281 3616 1378 3728 
Q 1409 3534 1442 3353 
Q 1475 3172 1519 2978 
L 1613 2441 
Q 1691 1997 1753 1784 
Q 1850 1459 1953 1459 
L 2400 1459 
L 2400 916 
z
M 1309 2313 
L 1250 2653 
Q 978 2556 822 2451 
Q 666 2347 559 2175 
Q 625 2147 712 2131 
Q 800 2116 953 2116 
Q 1141 2116 1309 2313 
z
M 1601 4655 
L 1369 4202 
L 857 4464 
L 1094 4918 
L 1601 4655 
z
M 888 4364 
L 654 3917 
L 138 4183 
L 382 4633 
L 888 4364 
z
" transform="scale(0.015625)"/>
      <path id="ArialMT-fef4" d="M 1563 916 
L -219 916 
L -219 1459 
L 1334 1459 
Q 1334 1828 1247 2022 
Q 1188 2156 953 2409 
L 1197 2919 
Q 1422 2634 1478 2475 
Q 1563 2234 1563 1678 
L 1563 916 
z
M 1537 303 
L 1305 -150 
L 793 112 
L 1030 566 
L 1537 303 
z
M 824 12 
L 590 -435 
L 74 -169 
L 318 281 
L 824 12 
z
" transform="scale(0.015625)"/>
      <path id="ArialMT-fee3" d="M 2522 916 
L 2197 916 
Q 1988 916 1725 1009 
Q 1422 1119 1191 1309 
Q 1009 1088 820 1002 
Q 631 916 269 916 
L -219 916 
L -219 1459 
L 259 1459 
Q 544 1459 766 1603 
Q 938 1716 1078 1919 
Q 1269 2194 1547 2397 
Q 1797 2578 2006 2628 
Q 2222 2300 2350 2038 
Q 2522 1681 2522 1459 
L 2522 916 
z
M 2163 1531 
Q 2122 1713 2038 1888 
Q 1966 2034 1847 2191 
Q 1697 2153 1594 2050 
Q 1525 1984 1431 1828 
Q 1544 1706 1748 1609 
Q 1953 1513 2134 1491 
L 2163 1531 
z
" transform="scale(0.015625)"/>
      <path id="ArialMT-632" d="M 3128 916 
Q 3128 572 2834 203 
Q 2578 -122 2197 -356 
Q 1834 -581 1600 -581 
Q 1384 -581 1134 -519 
Q 944 -472 678 -372 
Q 453 -288 231 -203 
L 284 -78 
Q 491 -119 714 -161 
Q 938 -203 1119 -203 
Q 1519 -203 1953 53 
Q 2347 288 2625 645 
Q 2903 1003 2903 1291 
Q 2903 1538 2759 1809 
Q 2644 2028 2434 2259 
L 2613 2750 
Q 2869 2513 2991 2275 
Q 3128 2006 3128 1675 
L 3128 916 
z
M 2660 3804 
L 2416 3351 
L 1910 3614 
L 2141 4070 
L 2660 3804 
z
" transform="scale(0.015625)"/>
      <path id="ArialMT-631" d="M 3128 916 
Q 3128 572 2834 203 
Q 2578 -122 2197 -356 
Q 1834 -581 1600 -581 
Q 1384 -581 1134 -519 
Q 944 -472 678 -372 
Q 453 -288 231 -203 
L 284 -78 
Q 491 -119 714 -161 
Q 938 -203 1119 -203 
Q 1519 -203 1953 53 
Q 2347 288 2625 645 
Q 2903 1003 2903 1291 
Q 2903 1538 2759 1809 
Q 2644 2028 2434 2259 
L 2613 2750 
Q 2869 2513 2991 2275 
Q 3128 2006 3128 1675 
L 3128 916 
z
" transform="scale(0.015625)"/>
      <path id="ArialMT-feee" d="M 2766 1103 
Q 2766 588 2384 78 
Q 1959 -491 1403 -491 
Q 1197 -491 978 -444 
Q 819 -409 563 -325 
Q 359 -253 156 -184 
L 209 -75 
Q 384 -116 576 -161 
Q 769 -206 922 -206 
Q 1303 -206 1644 -13 
Q 1909 141 2175 431 
Q 2309 578 2556 909 
Q 2134 909 1925 1044 
Q 1688 1197 1688 1547 
Q 1688 1869 1838 2144 
Q 2013 2463 2281 2463 
Q 2553 2463 2672 2147 
Q 2766 1900 2766 1459 
L 2766 1103 
z
M 2569 1444 
Q 2500 1744 2403 1859 
Q 2319 1959 2197 1959 
Q 2109 1959 2045 1901 
Q 1981 1844 1981 1756 
Q 1981 1603 2118 1523 
Q 2256 1444 2569 1444 
z
" transform="scale(0.015625)"/>
      <path id="ArialMT-fea7" d="M 3391 916 
L -219 916 
L -219 1459 
L 2328 1459 
Q 2009 1706 1791 1844 
Q 1519 2016 1294 2094 
Q 1041 2181 781 2181 
Q 622 2181 459 2159 
Q 550 2391 697 2531 
Q 909 2734 1234 2734 
Q 1553 2734 1988 2422 
Q 2203 2266 2691 1828 
Q 3069 1488 3203 1459 
L 3391 1459 
L 3391 916 
z
M 1900 3804 
L 1656 3351 
L 1150 3614 
L 1381 4070 
L 1900 3804 
z
" transform="scale(0.015625)"/>
     </defs>
     <use xlink:href="#ArialMT-627"/>
     <use xlink:href="#ArialMT-feae" transform="translate(20.703125 0)"/>
     <use xlink:href="#ArialMT-fe98" transform="translate(69.580078 0)"/>
     <use xlink:href="#ArialMT-feb4" transform="translate(93.994141 0)"/>
     <use xlink:href="#ArialMT-fedc" transform="translate(147.070312 0)"/>
     <use xlink:href="#ArialMT-fef3" transform="translate(186.474609 0)"/>
     <use xlink:href="#ArialMT-62f" transform="translate(210.888672 0)"/>
     <use xlink:href="#ArialMT-20" transform="translate(244.628906 0)"/>
     <use xlink:href="#ArialMT-fe94" transform="translate(272.412109 0)"/>
     <use xlink:href="#ArialMT-fef4" transform="translate(309.912109 0)"/>
     <use xlink:href="#ArialMT-fee3" transform="translate(334.326172 0)"/>
     <use xlink:href="#ArialMT-632" transform="translate(373.730469 0)"/>
     <use xlink:href="#ArialMT-631" transform="translate(422.607422 0)"/>
     <use xlink:href="#ArialMT-627" transform="translate(471.484375 0)"/>
     <use xlink:href="#ArialMT-feee" transform="translate(492.1875 0)"/>
     <use xlink:href="#ArialMT-fea7" transform="translate(535.400391 0)"/>
    </g>
   </g>
   <g id="text_2">
    <!-- A -->
    <g transform="translate(169.930781 177.139219) scale(0.14 -0.14)">
     <defs>
      <path id="ArialMT-41" d="M -9 0 
L 1750 4581 
L 2403 4581 
L 4278 0 
L 3588 0 
L 3053 1388 
L 1138 1388 
L 634 0 
L -9 0 
z
M 1313 1881 
L 2866 1881 
L 2388 3150 
Q 2169 3728 2063 4100 
Q 1975 3659 1816 3225 
L 1313 1881 
z
" transform="scale(0.015625)"/>
     </defs>
     <use xlink:href="#ArialMT-41"/>
    </g>
   </g>
   <g id="text_3">
    <!-- B -->
    <g transform="translate(337.330781 66.259219) scale(0.14 -0.14)">
     <defs>
      <path id="ArialMT-42" d="M 469 0 
L 469 4581 
L 2188 4581 
Q 2713 4581 3030 4442 
Q 3347 4303 3526 4014 
Q 3706 3725 3706 3409 
Q 3706 3116 3547 2856 
Q 3388 2597 3066 2438 
Q 3481 2316 3704 2022 
Q 3928 1728 3928 1328 
Q 3928 1006 3792 729 
Q 3656 453 3456 303 
Q 3256 153 2954 76 
Q 2653 0 2216 0 
L 469 0 
z
M 1075 2656 
L 2066 2656 
Q 2469 2656 2644 2709 
Q 2875 2778 2992 2937 
Q 3109 3097 3109 3338 
Q 3109 3566 3000 3739 
Q 2891 3913 2687 3977 
Q 2484 4041 1991 4041 
L 1075 4041 
L 1075 2656 
z
M 1075 541 
L 2216 541 
Q 2509 541 2628 563 
Q 2838 600 2978 687 
Q 3119 775 3209 942 
Q 3300 1109 3300 1328 
Q 3300 1584 3169 1773 
Q 3038 1963 2805 2039 
Q 2572 2116 2134 2116 
L 1075 2116 
L 1075 541 
z
" transform="scale(0.015625)"/>
     </defs>
     <use xlink:href="#ArialMT-42"/>
    </g>
   </g>
   <g id="text_4">
    <!-- C -->
    <g transform="translate(336.944687 288.019219) scale(0.14 -0.14)">
     <defs>
      <path id="ArialMT-43" d="M 3763 1606 
L 4369 1453 
Q 4178 706 3683 314 
Q 3188 -78 2472 -78 
Q 1731 -78 1267 223 
Q 803 525 561 1097 
Q 319 1669 319 2325 
Q 319 3041 592 3573 
Q 866 4106 1370 4382 
Q 1875 4659 2481 4659 
Q 3169 4659 3637 4309 
Q 4106 3959 4291 3325 
L 3694 3184 
Q 3534 3684 3231 3912 
Q 2928 4141 2469 4141 
Q 1941 4141 1586 3887 
Q 1231 3634 1087 3207 
Q 944 2781 944 2328 
Q 944 1744 1114 1308 
Q 1284 872 1643 656 
Q 2003 441 2422 441 
Q 2931 441 3284 734 
Q 3638 1028 3763 1606 
z
" transform="scale(0.015625)"/>
     </defs>
     <use xlink:href="#ArialMT-43"/>
    </g>
   </g>
   <g id="text_5">
    <!-- D -->
    <g transform="translate(560.144688 66.259219) scale(0.14 -0.14)">
     <defs>
      <path id="ArialMT-44" d="M 494 0 
L 494 4581 
L 2072 4581 
Q 2606 4581 2888 4516 
Q 3281 4425 3559 4188 
Q 3922 3881 4101 3404 
Q 4281 2928 4281 2316 
Q 4281 1794 4159 1391 
Q 4038 988 3847 723 
Q 3656 459 3429 307 
Q 3203 156 2883 78 
Q 2563 0 2147 0 
L 494 0 
z
M 1100 541 
L 2078 541 
Q 2531 541 2789 625 
Q 3047 709 3200 863 
Q 3416 1078 3536 1442 
Q 3656 1806 3656 2325 
Q 3656 3044 3420 3430 
Q 3184 3816 2847 3947 
Q 2603 4041 2063 4041 
L 1100 4041 
L 1100 541 
z
" transform="scale(0.015625)"/>
     </defs>
     <use xlink:href="#ArialMT-44"/>
    </g>
   </g>
   <g id="text_6">
    <!-- E -->
    <g transform="translate(560.530781 288.019219) scale(0.14 -0.14)">
     <defs>
      <path id="ArialMT-45" d="M 506 0 
L 506 4581 
L 3819 4581 
L 3819 4041 
L 1113 4041 
L 1113 2638 
L 3647 2638 
L 3647 2100 
L 1113 2100 
L 1113 541 
L 3925 541 
L 3925 0 
L 506 0 
z
" transform="scale(0.015625)"/>
     </defs>
     <use xlink:href="#ArialMT-45"/>
    </g>
   </g>
   <g id="text_7">
    <!-- F -->
    <g transform="translate(728.324531 177.139219) scale(0.14 -0.14)">
     <defs>
      <path id="ArialMT-46" d="M 525 0 
L 525 4581 
L 3616 4581 
L 3616 4041 
L 1131 4041 
L 1131 2622 
L 3281 2622 
L 3281 2081 
L 1131 2081 
L 1131 0 
L 525 0 
z
" transform="scale(0.015625)"/>
     </defs>
     <use xlink:href="#ArialMT-46"/>
    </g>
   </g>
   <g id="text_8">
    <!-- 4 -->
    <g transform="translate(260.543437 118.410188) scale(0.12 -0.12)">
     <defs>
      <path id="ArialMT-34" d="M 2069 0 
L 2069 1097 
L 81 1097 
L 81 1613 
L 2172 4581 
L 2631 4581 
L 2631 1613 
L 3250 1613 
L 3250 1097 
L 2631 1097 
L 2631 0 
L 2069 0 
z
M 2069 1613 
L 2069 3678 
L 634 1613 
L 2069 1613 
z
" transform="scale(0.015625)"/>
     </defs>
     <use xlink:href="#ArialMT-34"/>
    </g>
   </g>
   <g id="text_9">
    <!-- 2 -->
    <g transform="translate(260.543437 201.570188) scale(0.12 -0.12)">
     <defs>
      <path id="ArialMT-32" d="M 3222 541 
L 3222 0 
L 194 0 
Q 188 203 259 391 
Q 375 700 629 1000 
Q 884 1300 1366 1694 
Q 2113 2306 2375 2664 
Q 2638 3022 2638 3341 
Q 2638 3675 2398 3904 
Q 2159 4134 1775 4134 
Q 1369 4134 1125 3890 
Q 881 3647 878 3216 
L 300 3275 
Q 359 3922 746 4261 
Q 1134 4600 1788 4600 
Q 2447 4600 2831 4234 
Q 3216 3869 3216 3328 
Q 3216 3053 3103 2787 
Q 2991 2522 2730 2228 
Q 2469 1934 1863 1422 
Q 1356 997 1212 845 
Q 1069 694 975 541 
L 3222 541 
z
" transform="scale(0.015625)"/>
     </defs>
     <use xlink:href="#ArialMT-32"/>
    </g>
   </g>
   <g id="text_10">
    <!-- 3 -->
    <g transform="translate(450.263438 49.110188) scale(0.12 -0.12)">
     <defs>
      <path id="ArialMT-33" d="M 269 1209 
L 831 1284 
Q 928 806 1161 595 
Q 1394 384 1728 384 
Q 2125 384 2398 659 
Q 2672 934 2672 1341 
Q 2672 1728 2419 1979 
Q 2166 2231 1775 2231 
Q 1616 2231 1378 2169 
L 1441 2663 
Q 1497 2656 1531 2656 
Q 1891 2656 2178 2843 
Q 2466 3031 2466 3422 
Q 2466 3731 2256 3934 
Q 2047 4138 1716 4138 
Q 1388 4138 1169 3931 
Q 950 3725 888 3313 
L 325 3413 
Q 428 3978 793 4289 
Q 1159 4600 1703 4600 
Q 2078 4600 2393 4439 
Q 2709 4278 2876 4000 
Q 3044 3722 3044 3409 
Q 3044 3113 2884 2869 
Q 2725 2625 2413 2481 
Q 2819 2388 3044 2092 
Q 3269 1797 3269 1353 
Q 3269 753 2831 336 
Q 2394 -81 1725 -81 
Q 1122 -81 723 278 
Q 325 638 269 1209 
z
" transform="scale(0.015625)"/>
     </defs>
     <use xlink:href="#ArialMT-33"/>
    </g>
   </g>
   <g id="text_11">
    <!-- 5 -->
    <g transform="translate(450.263438 270.870188) scale(0.12 -0.12)">
     <defs>
      <path id="ArialMT-35" d="M 266 1200 
L 856 1250 
Q 922 819 1161 601 
Q 1400 384 1738 384 
Q 2144 384 2425 690 
Q 2706 997 2706 1503 
Q 2706 1984 2436 2262 
Q 2166 2541 1728 2541 
Q 1456 2541 1237 2417 
Q 1019 2294 894 2097 
L 366 2166 
L 809 4519 
L 3088 4519 
L 3088 3981 
L 1259 3981 
L 1013 2750 
Q 1425 3038 1878 3038 
Q 2478 3038 2890 2622 
Q 3303 2206 3303 1553 
Q 3303 931 2941 478 
Q 2500 -78 1738 -78 
Q 1113 -78 717 272 
Q 322 622 266 1200 
z
" transform="scale(0.015625)"/>
     </defs>
     <use xlink:href="#ArialMT-35"/>
    </g>
   </g>
   <g id="text_12">
    <!-- 4 -->
    <g transform="translate(623.243438 104.550188) scale(0.12 -0.12)">
     <use xlink:href="#ArialMT-34"/>
    </g>
   </g>
   <g id="text_13">
    <!-- 3 -->
    <g transform="translate(623.243438 215.430188) scale(0.12 -0.12)">
     <use xlink:href="#ArialMT-33"/>
    </g>
   </g>
   <g id="text_14">
    <!-- 0 -->
    <g transform="translate(170.318078 244.029141) scale(0.154 -0.154)">
     <defs>
      <path id="ArialMT-30" d="M 266 2259 
Q 266 3072 433 3567 
Q 600 4063 929 4331 
Q 1259 4600 1759 4600 
Q 2128 4600 2406 4451 
Q 2684 4303 2865 4023 
Q 3047 3744 3150 3342 
Q 3253 2941 3253 2259 
Q 3253 1453 3087 958 
Q 2922 463 2592 192 
Q 2263 -78 1759 -78 
Q 1097 -78 719 397 
Q 266 969 266 2259 
z
M 844 2259 
Q 844 1131 1108 757 
Q 1372 384 1759 384 
Q 2147 384 2411 759 
Q 2675 1134 2675 2259 
Q 2675 3391 2411 3762 
Q 2147 4134 1753 4134 
Q 1366 4134 1134 3806 
Q 844 3388 844 2259 
z
" transform="scale(0.015625)"/>
     </defs>
     <use xlink:href="#ArialMT-30"/>
    </g>
   </g>
  </g>
 </g>
 <defs>
  <clipPath id="p208e7082fe">
   <rect x="7.2" y="7.2" width="892.8" height="554.4"/>
  </clipPath>
 </defs>
</svg>
