<?xml version="1.0" encoding="UTF-8" standalone="no"?>
<!-- Created with Inkscape (http://www.inkscape.org/) -->

<svg
   width="97.873695mm"
   height="105.91948mm"
   viewBox="0 0 97.873695 105.91948"
   version="1.1"
   id="svg1"
   inkscape:version="1.4.2 (f4327f4, 2025-05-13)"
   xmlns:inkscape="http://www.inkscape.org/namespaces/inkscape"
   xmlns:sodipodi="http://sodipodi.sourceforge.net/DTD/sodipodi-0.dtd"
   xmlns="http://www.w3.org/2000/svg"
   xmlns:svg="http://www.w3.org/2000/svg">
  <sodipodi:namedview
     id="namedview1"
     pagecolor="#ffffff"
     bordercolor="#000000"
     borderopacity="0.25"
     inkscape:showpageshadow="2"
     inkscape:pageopacity="0.0"
     inkscape:pagecheckerboard="true"
     inkscape:deskcolor="#d1d1d1"
     inkscape:document-units="mm"
     inkscape:zoom="1.3950758"
     inkscape:cx="101.78659"
     inkscape:cy="175.2593"
     inkscape:window-width="1920"
     inkscape:window-height="991"
     inkscape:window-x="-9"
     inkscape:window-y="-9"
     inkscape:window-maximized="1"
     inkscape:current-layer="layer1" />
  <defs
     id="defs1">
    <clipPath
       clipPathUnits="userSpaceOnUse"
       id="clipEmfPath1">
      <path
         d="m 822.66667,741.66667 c 7,-4.33334 12.66666,-14.33334 12.66666,-22.33334 v -277 C 835.33333,434 829.66667,424 822.66667,420 l -240,-138.66667 c -7,-4 -18.66667,-4 -25.66667,0 L 317,419.66667 c -7,4 -12.66667,14 -12.66667,22.33333 v 41 c 0,8.33333 5.66667,11.66667 12.66667,7.33333 L 557,350 c 7,-4 18.66667,-4 25.66667,0 l 180.66666,104.33333 c 7,4 12.66667,14 12.66667,22.33334 V 685 c 0,8 -5.66667,18 -12.66667,22.33333 l -180.66666,104 c -7,4.33334 -18.66667,4.33334 -25.66667,0 l -180.66667,-104 C 369.33333,703 363.66667,693 363.66667,685 V 547 c 0,-8.33333 -6,-11.66667 -13,-7.33333 L 317,559.33333 c -7,4 -12.66667,14 -12.66667,22.33334 v 137.66666 c 0,8 5.66667,18 12.66667,22.33334 L 557,880 c 7,4 18.66667,4 25.66667,0 z"
         id="path1" />
    </clipPath>
    <clipPath
       clipPathUnits="userSpaceOnUse"
       id="clipEmfPath2">
      <path
         d="m 582.66667,158.66667 c -7,-4 -18.66667,-4 -25.66667,0 L 376.33333,263 c -7,4 -12.66666,0.66667 -12.66666,-7.66667 V 9.3333333 c 0,-8 -5.66667,-11.3333333 -13,-7 L 317,22.333333 c -7,4 -12.66667,14.333334 -12.66667,22.333334 V 356 c 0,8 5.66667,11.66667 12.66667,7.33333 L 557,227 c 7,-4 18.66667,-4 25.66667,0.33333 l 287,165.66667 c 7,4 12.66666,14 12.66666,22 v 331.33333 c 0,8.33334 -5.66666,18.33334 -12.66666,22.33334 l -287,165.66666 c -7,4 -18.66667,4 -25.66667,0 L 270,768.66667 c -7,-4 -12.66667,-14 -12.66667,-22.33334 V 72.333333 c 0,-8 -5.66666,-11.333333 -13,-7 l -33.66666,20 c -7,4 -12.66667,14.333334 -12.66667,22.333337 v 673 c 0,8 5.66667,18 12.66667,22.33333 L 557,1002.6667 c 7,4.3333 18.66667,4.3333 25.66667,0 L 929,803 c 7,-4.33333 12.66667,-14.33333 12.66667,-22.33333 v -400 c 0,-8 -5.66667,-18 -12.66667,-22 z"
         id="path2" />
    </clipPath>
    <pattern
       id="EMFhbasepattern"
       patternUnits="userSpaceOnUse"
       width="6"
       height="6"
       x="0"
       y="0" />
  </defs>
  <g
     inkscape:label="Layer 1"
     inkscape:groupmode="layer"
     id="layer1"
     transform="translate(-65.534526,-75.34909)">
    <path
       style="fill:#404293;fill-opacity:1;fill-rule:nonzero;stroke:none"
       clip-path="url(#clipEmfPath1)"
       d="M 309,277.33333 V 884 h -4.66667 V 277.33333 Z"
       id="path3"
       transform="matrix(0.08597981,0,0,0.08597981,65.505868,75.312778)" />
    <path
       style="fill:#404293;fill-opacity:1;fill-rule:nonzero;stroke:none"
       clip-path="url(#clipEmfPath1)"
       d="M 326,277.33333 V 884 H 309 V 277.33333 Z"
       id="path4"
       transform="matrix(0.08597981,0,0,0.08597981,65.505868,75.312778)" />
    <path
       style="fill:#3f4394;fill-opacity:1;fill-rule:nonzero;stroke:none"
       clip-path="url(#clipEmfPath1)"
       d="M 343,277.33333 V 884 H 326 V 277.33333 Z"
       id="path5"
       transform="matrix(0.08597981,0,0,0.08597981,65.505868,75.312778)" />
    <path
       style="fill:#3e4495;fill-opacity:1;fill-rule:nonzero;stroke:none"
       clip-path="url(#clipEmfPath1)"
       d="M 360,277.33333 V 884 H 343 V 277.33333 Z"
       id="path6"
       transform="matrix(0.08597981,0,0,0.08597981,65.505868,75.312778)" />
    <path
       style="fill:#3d4595;fill-opacity:1;fill-rule:nonzero;stroke:none"
       clip-path="url(#clipEmfPath1)"
       d="M 377,277.33333 V 884 H 360 V 277.33333 Z"
       id="path7"
       transform="matrix(0.08597981,0,0,0.08597981,65.505868,75.312778)" />
    <path
       style="fill:#3d4696;fill-opacity:1;fill-rule:nonzero;stroke:none"
       clip-path="url(#clipEmfPath1)"
       d="M 394,277.33333 V 884 H 377 V 277.33333 Z"
       id="path8"
       transform="matrix(0.08597981,0,0,0.08597981,65.505868,75.312778)" />
    <path
       style="fill:#3c4797;fill-opacity:1;fill-rule:nonzero;stroke:none"
       clip-path="url(#clipEmfPath1)"
       d="M 411,277.33333 V 884 H 394 V 277.33333 Z"
       id="path9"
       transform="matrix(0.08597981,0,0,0.08597981,65.505868,75.312778)" />
    <path
       style="fill:#3b4898;fill-opacity:1;fill-rule:nonzero;stroke:none"
       clip-path="url(#clipEmfPath1)"
       d="M 428,277.33333 V 884 H 411 V 277.33333 Z"
       id="path10"
       transform="matrix(0.08597981,0,0,0.08597981,65.505868,75.312778)" />
    <path
       style="fill:#3a4999;fill-opacity:1;fill-rule:nonzero;stroke:none"
       clip-path="url(#clipEmfPath1)"
       d="M 445,277.33333 V 884 H 428 V 277.33333 Z"
       id="path11"
       transform="matrix(0.08597981,0,0,0.08597981,65.505868,75.312778)" />
    <path
       style="fill:#394b99;fill-opacity:1;fill-rule:nonzero;stroke:none"
       clip-path="url(#clipEmfPath1)"
       d="M 462,277.33333 V 884 H 445 V 277.33333 Z"
       id="path12"
       transform="matrix(0.08597981,0,0,0.08597981,65.505868,75.312778)" />
    <path
       style="fill:#384c9a;fill-opacity:1;fill-rule:nonzero;stroke:none"
       clip-path="url(#clipEmfPath1)"
       d="M 479,277.33333 V 884 H 462 V 277.33333 Z"
       id="path13"
       transform="matrix(0.08597981,0,0,0.08597981,65.505868,75.312778)" />
    <path
       style="fill:#374d9b;fill-opacity:1;fill-rule:nonzero;stroke:none"
       clip-path="url(#clipEmfPath1)"
       d="M 496,277.33333 V 884 H 479 V 277.33333 Z"
       id="path14"
       transform="matrix(0.08597981,0,0,0.08597981,65.505868,75.312778)" />
    <path
       style="fill:#364e9c;fill-opacity:1;fill-rule:nonzero;stroke:none"
       clip-path="url(#clipEmfPath1)"
       d="M 513.33333,277.33333 V 884 H 496 V 277.33333 Z"
       id="path15"
       transform="matrix(0.08597981,0,0,0.08597981,65.505868,75.312778)" />
    <path
       style="fill:#364f9d;fill-opacity:1;fill-rule:nonzero;stroke:none"
       clip-path="url(#clipEmfPath1)"
       d="M 530.33333,277.33333 V 884 h -17 V 277.33333 Z"
       id="path16"
       transform="matrix(0.08597981,0,0,0.08597981,65.505868,75.312778)" />
    <path
       style="fill:#35509d;fill-opacity:1;fill-rule:nonzero;stroke:none"
       clip-path="url(#clipEmfPath1)"
       d="M 547.33333,277.33333 V 884 h -17 V 277.33333 Z"
       id="path17"
       transform="matrix(0.08597981,0,0,0.08597981,65.505868,75.312778)" />
    <path
       style="fill:#34519e;fill-opacity:1;fill-rule:nonzero;stroke:none"
       clip-path="url(#clipEmfPath1)"
       d="M 564.33333,277.33333 V 884 h -17 V 277.33333 Z"
       id="path18"
       transform="matrix(0.08597981,0,0,0.08597981,65.505868,75.312778)" />
    <path
       style="fill:#33529f;fill-opacity:1;fill-rule:nonzero;stroke:none"
       clip-path="url(#clipEmfPath1)"
       d="M 581.33333,277.33333 V 884 h -17 V 277.33333 Z"
       id="path19"
       transform="matrix(0.08597981,0,0,0.08597981,65.505868,75.312778)" />
    <path
       style="fill:#33529f;fill-opacity:1;fill-rule:nonzero;stroke:none"
       clip-path="url(#clipEmfPath1)"
       d="M 587.33333,277.33333 V 884 h -6 V 277.33333 Z"
       id="path20"
       transform="matrix(0.08597981,0,0,0.08597981,65.505868,75.312778)" />
    <path
       style="fill:#3353a0;fill-opacity:1;fill-rule:nonzero;stroke:none"
       clip-path="url(#clipEmfPath1)"
       d="M 593.33333,277.33333 V 884 h -6 V 277.33333 Z"
       id="path21"
       transform="matrix(0.08597981,0,0,0.08597981,65.505868,75.312778)" />
    <path
       style="fill:#3254a1;fill-opacity:1;fill-rule:nonzero;stroke:none"
       clip-path="url(#clipEmfPath1)"
       d="M 599.66667,277.33333 V 884 h -6.33334 V 277.33333 Z"
       id="path22"
       transform="matrix(0.08597981,0,0,0.08597981,65.505868,75.312778)" />
    <path
       style="fill:#3255a1;fill-opacity:1;fill-rule:nonzero;stroke:none"
       clip-path="url(#clipEmfPath1)"
       d="M 605.66667,277.33333 V 884 h -6 V 277.33333 Z"
       id="path23"
       transform="matrix(0.08597981,0,0,0.08597981,65.505868,75.312778)" />
    <path
       style="fill:#3156a2;fill-opacity:1;fill-rule:nonzero;stroke:none"
       clip-path="url(#clipEmfPath1)"
       d="M 612,277.33333 V 884 h -6.33333 V 277.33333 Z"
       id="path24"
       transform="matrix(0.08597981,0,0,0.08597981,65.505868,75.312778)" />
    <path
       style="fill:#3157a3;fill-opacity:1;fill-rule:nonzero;stroke:none"
       clip-path="url(#clipEmfPath1)"
       d="M 618,277.33333 V 884 h -6 V 277.33333 Z"
       id="path25"
       transform="matrix(0.08597981,0,0,0.08597981,65.505868,75.312778)" />
    <path
       style="fill:#3058a4;fill-opacity:1;fill-rule:nonzero;stroke:none"
       clip-path="url(#clipEmfPath1)"
       d="M 624,277.33333 V 884 h -6 V 277.33333 Z"
       id="path26"
       transform="matrix(0.08597981,0,0,0.08597981,65.505868,75.312778)" />
    <path
       style="fill:#3059a5;fill-opacity:1;fill-rule:nonzero;stroke:none"
       clip-path="url(#clipEmfPath1)"
       d="M 630.33333,277.33333 V 884 H 624 V 277.33333 Z"
       id="path27"
       transform="matrix(0.08597981,0,0,0.08597981,65.505868,75.312778)" />
    <path
       style="fill:#2f5aa5;fill-opacity:1;fill-rule:nonzero;stroke:none"
       clip-path="url(#clipEmfPath1)"
       d="M 636.33333,277.33333 V 884 h -6 V 277.33333 Z"
       id="path28"
       transform="matrix(0.08597981,0,0,0.08597981,65.505868,75.312778)" />
    <path
       style="fill:#2f5ba6;fill-opacity:1;fill-rule:nonzero;stroke:none"
       clip-path="url(#clipEmfPath1)"
       d="M 642.33333,277.33333 V 884 h -6 V 277.33333 Z"
       id="path29"
       transform="matrix(0.08597981,0,0,0.08597981,65.505868,75.312778)" />
    <path
       style="fill:#2f5ca7;fill-opacity:1;fill-rule:nonzero;stroke:none"
       clip-path="url(#clipEmfPath1)"
       d="M 648.66667,277.33333 V 884 h -6.33334 V 277.33333 Z"
       id="path30"
       transform="matrix(0.08597981,0,0,0.08597981,65.505868,75.312778)" />
    <path
       style="fill:#2e5da8;fill-opacity:1;fill-rule:nonzero;stroke:none"
       clip-path="url(#clipEmfPath1)"
       d="M 654.66667,277.33333 V 884 h -6 V 277.33333 Z"
       id="path31"
       transform="matrix(0.08597981,0,0,0.08597981,65.505868,75.312778)" />
    <path
       style="fill:#2e5ea9;fill-opacity:1;fill-rule:nonzero;stroke:none"
       clip-path="url(#clipEmfPath1)"
       d="M 660.66667,277.33333 V 884 h -6 V 277.33333 Z"
       id="path32"
       transform="matrix(0.08597981,0,0,0.08597981,65.505868,75.312778)" />
    <path
       style="fill:#2d5fa9;fill-opacity:1;fill-rule:nonzero;stroke:none"
       clip-path="url(#clipEmfPath1)"
       d="M 667,277.33333 V 884 h -6.33333 V 277.33333 Z"
       id="path33"
       transform="matrix(0.08597981,0,0,0.08597981,65.505868,75.312778)" />
    <path
       style="fill:#2d60aa;fill-opacity:1;fill-rule:nonzero;stroke:none"
       clip-path="url(#clipEmfPath1)"
       d="M 673,277.33333 V 884 h -6 V 277.33333 Z"
       id="path34"
       transform="matrix(0.08597981,0,0,0.08597981,65.505868,75.312778)" />
    <path
       style="fill:#2c61ab;fill-opacity:1;fill-rule:nonzero;stroke:none"
       clip-path="url(#clipEmfPath1)"
       d="M 679,277.33333 V 884 h -6 V 277.33333 Z"
       id="path35"
       transform="matrix(0.08597981,0,0,0.08597981,65.505868,75.312778)" />
    <path
       style="fill:#2c62ac;fill-opacity:1;fill-rule:nonzero;stroke:none"
       clip-path="url(#clipEmfPath1)"
       d="M 685.33333,277.33333 V 884 H 679 V 277.33333 Z"
       id="path36"
       transform="matrix(0.08597981,0,0,0.08597981,65.505868,75.312778)" />
    <path
       style="fill:#2b63ad;fill-opacity:1;fill-rule:nonzero;stroke:none"
       clip-path="url(#clipEmfPath1)"
       d="M 691.33333,277.33333 V 884 h -6 V 277.33333 Z"
       id="path37"
       transform="matrix(0.08597981,0,0,0.08597981,65.505868,75.312778)" />
    <path
       style="fill:#2b64ad;fill-opacity:1;fill-rule:nonzero;stroke:none"
       clip-path="url(#clipEmfPath1)"
       d="M 697.33333,277.33333 V 884 h -6 V 277.33333 Z"
       id="path38"
       transform="matrix(0.08597981,0,0,0.08597981,65.505868,75.312778)" />
    <path
       style="fill:#2a65ae;fill-opacity:1;fill-rule:nonzero;stroke:none"
       clip-path="url(#clipEmfPath1)"
       d="M 703.66667,277.33333 V 884 h -6.33334 V 277.33333 Z"
       id="path39"
       transform="matrix(0.08597981,0,0,0.08597981,65.505868,75.312778)" />
    <path
       style="fill:#2a67af;fill-opacity:1;fill-rule:nonzero;stroke:none"
       clip-path="url(#clipEmfPath1)"
       d="M 709.66667,277.33333 V 884 h -6 V 277.33333 Z"
       id="path40"
       transform="matrix(0.08597981,0,0,0.08597981,65.505868,75.312778)" />
    <path
       style="fill:#2a68b0;fill-opacity:1;fill-rule:nonzero;stroke:none"
       clip-path="url(#clipEmfPath1)"
       d="M 716,277.33333 V 884 h -6.33333 V 277.33333 Z"
       id="path41"
       transform="matrix(0.08597981,0,0,0.08597981,65.505868,75.312778)" />
    <path
       style="fill:#2969b1;fill-opacity:1;fill-rule:nonzero;stroke:none"
       clip-path="url(#clipEmfPath1)"
       d="M 722,277.33333 V 884 h -6 V 277.33333 Z"
       id="path42"
       transform="matrix(0.08597981,0,0,0.08597981,65.505868,75.312778)" />
    <path
       style="fill:#296ab1;fill-opacity:1;fill-rule:nonzero;stroke:none"
       clip-path="url(#clipEmfPath1)"
       d="M 728,277.33333 V 884 h -6 V 277.33333 Z"
       id="path43"
       transform="matrix(0.08597981,0,0,0.08597981,65.505868,75.312778)" />
    <path
       style="fill:#286bb2;fill-opacity:1;fill-rule:nonzero;stroke:none"
       clip-path="url(#clipEmfPath1)"
       d="M 734.33333,277.33333 V 884 H 728 V 277.33333 Z"
       id="path44"
       transform="matrix(0.08597981,0,0,0.08597981,65.505868,75.312778)" />
    <path
       style="fill:#286cb3;fill-opacity:1;fill-rule:nonzero;stroke:none"
       clip-path="url(#clipEmfPath1)"
       d="M 740.33333,277.33333 V 884 h -6 V 277.33333 Z"
       id="path45"
       transform="matrix(0.08597981,0,0,0.08597981,65.505868,75.312778)" />
    <path
       style="fill:#276db4;fill-opacity:1;fill-rule:nonzero;stroke:none"
       clip-path="url(#clipEmfPath1)"
       d="M 746.33333,277.33333 V 884 h -6 V 277.33333 Z"
       id="path46"
       transform="matrix(0.08597981,0,0,0.08597981,65.505868,75.312778)" />
    <path
       style="fill:#276eb5;fill-opacity:1;fill-rule:nonzero;stroke:none"
       clip-path="url(#clipEmfPath1)"
       d="M 752.66667,277.33333 V 884 h -6.33334 V 277.33333 Z"
       id="path47"
       transform="matrix(0.08597981,0,0,0.08597981,65.505868,75.312778)" />
    <path
       style="fill:#266fb5;fill-opacity:1;fill-rule:nonzero;stroke:none"
       clip-path="url(#clipEmfPath1)"
       d="M 758.66667,277.33333 V 884 h -6 V 277.33333 Z"
       id="path48"
       transform="matrix(0.08597981,0,0,0.08597981,65.505868,75.312778)" />
    <path
       style="fill:#2670b6;fill-opacity:1;fill-rule:nonzero;stroke:none"
       clip-path="url(#clipEmfPath1)"
       d="M 764.66667,277.33333 V 884 h -6 V 277.33333 Z"
       id="path49"
       transform="matrix(0.08597981,0,0,0.08597981,65.505868,75.312778)" />
    <path
       style="fill:#2671b7;fill-opacity:1;fill-rule:nonzero;stroke:none"
       clip-path="url(#clipEmfPath1)"
       d="M 771,277.33333 V 884 h -6.33333 V 277.33333 Z"
       id="path50"
       transform="matrix(0.08597981,0,0,0.08597981,65.505868,75.312778)" />
    <path
       style="fill:#2572b8;fill-opacity:1;fill-rule:nonzero;stroke:none"
       clip-path="url(#clipEmfPath1)"
       d="M 777,277.33333 V 884 h -6 V 277.33333 Z"
       id="path51"
       transform="matrix(0.08597981,0,0,0.08597981,65.505868,75.312778)" />
    <path
       style="fill:#2573b9;fill-opacity:1;fill-rule:nonzero;stroke:none"
       clip-path="url(#clipEmfPath1)"
       d="M 783,277.33333 V 884 h -6 V 277.33333 Z"
       id="path52"
       transform="matrix(0.08597981,0,0,0.08597981,65.505868,75.312778)" />
    <path
       style="fill:#2474b9;fill-opacity:1;fill-rule:nonzero;stroke:none"
       clip-path="url(#clipEmfPath1)"
       d="M 789.33333,277.33333 V 884 H 783 V 277.33333 Z"
       id="path53"
       transform="matrix(0.08597981,0,0,0.08597981,65.505868,75.312778)" />
    <path
       style="fill:#2475ba;fill-opacity:1;fill-rule:nonzero;stroke:none"
       clip-path="url(#clipEmfPath1)"
       d="M 795.33333,277.33333 V 884 h -6 V 277.33333 Z"
       id="path54"
       transform="matrix(0.08597981,0,0,0.08597981,65.505868,75.312778)" />
    <path
       style="fill:#2376bb;fill-opacity:1;fill-rule:nonzero;stroke:none"
       clip-path="url(#clipEmfPath1)"
       d="M 801.66667,277.33333 V 884 h -6.33334 V 277.33333 Z"
       id="path55"
       transform="matrix(0.08597981,0,0,0.08597981,65.505868,75.312778)" />
    <path
       style="fill:#2377bc;fill-opacity:1;fill-rule:nonzero;stroke:none"
       clip-path="url(#clipEmfPath1)"
       d="M 807.66667,277.33333 V 884 h -6 V 277.33333 Z"
       id="path56"
       transform="matrix(0.08597981,0,0,0.08597981,65.505868,75.312778)" />
    <path
       style="fill:#2278bd;fill-opacity:1;fill-rule:nonzero;stroke:none"
       clip-path="url(#clipEmfPath1)"
       d="M 813.66667,277.33333 V 884 h -6 V 277.33333 Z"
       id="path57"
       transform="matrix(0.08597981,0,0,0.08597981,65.505868,75.312778)" />
    <path
       style="fill:#2279bd;fill-opacity:1;fill-rule:nonzero;stroke:none"
       clip-path="url(#clipEmfPath1)"
       d="M 820,277.33333 V 884 h -6.33333 V 277.33333 Z"
       id="path58"
       transform="matrix(0.08597981,0,0,0.08597981,65.505868,75.312778)" />
    <path
       style="fill:#217abe;fill-opacity:1;fill-rule:nonzero;stroke:none"
       clip-path="url(#clipEmfPath1)"
       d="M 826,277.33333 V 884 h -6 V 277.33333 Z"
       id="path59"
       transform="matrix(0.08597981,0,0,0.08597981,65.505868,75.312778)" />
    <path
       style="fill:#217bbf;fill-opacity:1;fill-rule:nonzero;stroke:none"
       clip-path="url(#clipEmfPath1)"
       d="M 832,277.33333 V 884 h -6 V 277.33333 Z"
       id="path60"
       transform="matrix(0.08597981,0,0,0.08597981,65.505868,75.312778)" />
    <path
       style="fill:#217bbf;fill-opacity:1;fill-rule:nonzero;stroke:none"
       clip-path="url(#clipEmfPath1)"
       d="M 832,884 V 277.33333 h 3.33333 V 884 Z"
       id="path61"
       transform="matrix(0.08597981,0,0,0.08597981,65.505868,75.312778)" />
    <path
       style="fill:#404293;fill-opacity:1;fill-rule:nonzero;stroke:none"
       clip-path="url(#clipEmfPath2)"
       d="M 204.66667,-2 V 1007 H 198 V -2 Z"
       id="path62"
       transform="matrix(0.08597981,0,0,0.08597981,65.505868,75.312778)" />
    <path
       style="fill:#404293;fill-opacity:1;fill-rule:nonzero;stroke:none"
       clip-path="url(#clipEmfPath2)"
       d="M 228.33333,-2 V 1007 H 204.66667 V -2 Z"
       id="path63"
       transform="matrix(0.08597981,0,0,0.08597981,65.505868,75.312778)" />
    <path
       style="fill:#3f4394;fill-opacity:1;fill-rule:nonzero;stroke:none"
       clip-path="url(#clipEmfPath2)"
       d="m 252.33333,-2 v 1009 h -24 V -2 Z"
       id="path64"
       transform="matrix(0.08597981,0,0,0.08597981,65.505868,75.312778)" />
    <path
       style="fill:#3e4495;fill-opacity:1;fill-rule:nonzero;stroke:none"
       clip-path="url(#clipEmfPath2)"
       d="M 276,-2 V 1007 H 252.33333 V -2 Z"
       id="path65"
       transform="matrix(0.08597981,0,0,0.08597981,65.505868,75.312778)" />
    <path
       style="fill:#3d4595;fill-opacity:1;fill-rule:nonzero;stroke:none"
       clip-path="url(#clipEmfPath2)"
       d="M 300,-2 V 1007 H 276 V -2 Z"
       id="path66"
       transform="matrix(0.08597981,0,0,0.08597981,65.505868,75.312778)" />
    <path
       style="fill:#3d4696;fill-opacity:1;fill-rule:nonzero;stroke:none"
       clip-path="url(#clipEmfPath2)"
       d="M 323.66667,-2 V 1007 H 300 V -2 Z"
       id="path67"
       transform="matrix(0.08597981,0,0,0.08597981,65.505868,75.312778)" />
    <path
       style="fill:#3c4797;fill-opacity:1;fill-rule:nonzero;stroke:none"
       clip-path="url(#clipEmfPath2)"
       d="m 347.66667,-2 v 1009 h -24 V -2 Z"
       id="path68"
       transform="matrix(0.08597981,0,0,0.08597981,65.505868,75.312778)" />
    <path
       style="fill:#3b4898;fill-opacity:1;fill-rule:nonzero;stroke:none"
       clip-path="url(#clipEmfPath2)"
       d="M 371.33333,-2 V 1007 H 347.66667 V -2 Z"
       id="path69"
       transform="matrix(0.08597981,0,0,0.08597981,65.505868,75.312778)" />
    <path
       style="fill:#3a4999;fill-opacity:1;fill-rule:nonzero;stroke:none"
       clip-path="url(#clipEmfPath2)"
       d="M 395,-2 V 1007 H 371.33333 V -2 Z"
       id="path70"
       transform="matrix(0.08597981,0,0,0.08597981,65.505868,75.312778)" />
    <path
       style="fill:#394b99;fill-opacity:1;fill-rule:nonzero;stroke:none"
       clip-path="url(#clipEmfPath2)"
       d="M 419,-2 V 1007 H 395 V -2 Z"
       id="path71"
       transform="matrix(0.08597981,0,0,0.08597981,65.505868,75.312778)" />
    <path
       style="fill:#384c9a;fill-opacity:1;fill-rule:nonzero;stroke:none"
       clip-path="url(#clipEmfPath2)"
       d="M 442.66667,-2 V 1007 H 419 V -2 Z"
       id="path72"
       transform="matrix(0.08597981,0,0,0.08597981,65.505868,75.312778)" />
    <path
       style="fill:#374d9b;fill-opacity:1;fill-rule:nonzero;stroke:none"
       clip-path="url(#clipEmfPath2)"
       d="m 466.66667,-2 v 1009 h -24 V -2 Z"
       id="path73"
       transform="matrix(0.08597981,0,0,0.08597981,65.505868,75.312778)" />
    <path
       style="fill:#364e9c;fill-opacity:1;fill-rule:nonzero;stroke:none"
       clip-path="url(#clipEmfPath2)"
       d="M 490.33333,-2 V 1007 H 466.66667 V -2 Z"
       id="path74"
       transform="matrix(0.08597981,0,0,0.08597981,65.505868,75.312778)" />
    <path
       style="fill:#364f9d;fill-opacity:1;fill-rule:nonzero;stroke:none"
       clip-path="url(#clipEmfPath2)"
       d="m 514.33333,-2 v 1009 h -24 V -2 Z"
       id="path75"
       transform="matrix(0.08597981,0,0,0.08597981,65.505868,75.312778)" />
    <path
       style="fill:#35509d;fill-opacity:1;fill-rule:nonzero;stroke:none"
       clip-path="url(#clipEmfPath2)"
       d="M 538,-2 V 1007 H 514.33333 V -2 Z"
       id="path76"
       transform="matrix(0.08597981,0,0,0.08597981,65.505868,75.312778)" />
    <path
       style="fill:#34519e;fill-opacity:1;fill-rule:nonzero;stroke:none"
       clip-path="url(#clipEmfPath2)"
       d="M 562,-2 V 1007 H 538 V -2 Z"
       id="path77"
       transform="matrix(0.08597981,0,0,0.08597981,65.505868,75.312778)" />
    <path
       style="fill:#33529f;fill-opacity:1;fill-rule:nonzero;stroke:none"
       clip-path="url(#clipEmfPath2)"
       d="M 585.66667,-2 V 1007 H 562 V -2 Z"
       id="path78"
       transform="matrix(0.08597981,0,0,0.08597981,65.505868,75.312778)" />
    <path
       style="fill:#33529f;fill-opacity:1;fill-rule:nonzero;stroke:none"
       clip-path="url(#clipEmfPath2)"
       d="m 594.33333,-2 v 1009 h -8.66666 V -2 Z"
       id="path79"
       transform="matrix(0.08597981,0,0,0.08597981,65.505868,75.312778)" />
    <path
       style="fill:#3353a0;fill-opacity:1;fill-rule:nonzero;stroke:none"
       clip-path="url(#clipEmfPath2)"
       d="m 603,-2 v 1009 h -8.66667 V -2 Z"
       id="path80"
       transform="matrix(0.08597981,0,0,0.08597981,65.505868,75.312778)" />
    <path
       style="fill:#3254a1;fill-opacity:1;fill-rule:nonzero;stroke:none"
       clip-path="url(#clipEmfPath2)"
       d="M 611.66667,-2 V 1007 H 603 V -2 Z"
       id="path81"
       transform="matrix(0.08597981,0,0,0.08597981,65.505868,75.312778)" />
    <path
       style="fill:#3255a1;fill-opacity:1;fill-rule:nonzero;stroke:none"
       clip-path="url(#clipEmfPath2)"
       d="m 620,-2 v 1009 h -8.33333 V -2 Z"
       id="path82"
       transform="matrix(0.08597981,0,0,0.08597981,65.505868,75.312778)" />
    <path
       style="fill:#3156a2;fill-opacity:1;fill-rule:nonzero;stroke:none"
       clip-path="url(#clipEmfPath2)"
       d="M 628.66667,-2 V 1007 H 620 V -2 Z"
       id="path83"
       transform="matrix(0.08597981,0,0,0.08597981,65.505868,75.312778)" />
    <path
       style="fill:#3157a3;fill-opacity:1;fill-rule:nonzero;stroke:none"
       clip-path="url(#clipEmfPath2)"
       d="m 637.33333,-2 v 1009 h -8.66666 V -2 Z"
       id="path84"
       transform="matrix(0.08597981,0,0,0.08597981,65.505868,75.312778)" />
    <path
       style="fill:#3058a4;fill-opacity:1;fill-rule:nonzero;stroke:none"
       clip-path="url(#clipEmfPath2)"
       d="m 645.66667,-2 v 1009 h -8.33334 V -2 Z"
       id="path85"
       transform="matrix(0.08597981,0,0,0.08597981,65.505868,75.312778)" />
    <path
       style="fill:#3059a5;fill-opacity:1;fill-rule:nonzero;stroke:none"
       clip-path="url(#clipEmfPath2)"
       d="m 654.33333,-2 v 1009 h -8.66666 V -2 Z"
       id="path86"
       transform="matrix(0.08597981,0,0,0.08597981,65.505868,75.312778)" />
    <path
       style="fill:#2f5aa5;fill-opacity:1;fill-rule:nonzero;stroke:none"
       clip-path="url(#clipEmfPath2)"
       d="m 663,-2 v 1009 h -8.66667 V -2 Z"
       id="path87"
       transform="matrix(0.08597981,0,0,0.08597981,65.505868,75.312778)" />
    <path
       style="fill:#2f5ba6;fill-opacity:1;fill-rule:nonzero;stroke:none"
       clip-path="url(#clipEmfPath2)"
       d="M 671.33333,-2 V 1007 H 663 V -2 Z"
       id="path88"
       transform="matrix(0.08597981,0,0,0.08597981,65.505868,75.312778)" />
    <path
       style="fill:#2f5ca7;fill-opacity:1;fill-rule:nonzero;stroke:none"
       clip-path="url(#clipEmfPath2)"
       d="m 680,-2 v 1009 h -8.66667 V -2 Z"
       id="path89"
       transform="matrix(0.08597981,0,0,0.08597981,65.505868,75.312778)" />
    <path
       style="fill:#2e5da8;fill-opacity:1;fill-rule:nonzero;stroke:none"
       clip-path="url(#clipEmfPath2)"
       d="M 688.66667,-2 V 1007 H 680 V -2 Z"
       id="path90"
       transform="matrix(0.08597981,0,0,0.08597981,65.505868,75.312778)" />
    <path
       style="fill:#2e5ea9;fill-opacity:1;fill-rule:nonzero;stroke:none"
       clip-path="url(#clipEmfPath2)"
       d="m 697.33333,-2 v 1009 h -8.66666 V -2 Z"
       id="path91"
       transform="matrix(0.08597981,0,0,0.08597981,65.505868,75.312778)" />
    <path
       style="fill:#2d5fa9;fill-opacity:1;fill-rule:nonzero;stroke:none"
       clip-path="url(#clipEmfPath2)"
       d="m 705.66667,-2 v 1009 h -8.33334 V -2 Z"
       id="path92"
       transform="matrix(0.08597981,0,0,0.08597981,65.505868,75.312778)" />
    <path
       style="fill:#2d60aa;fill-opacity:1;fill-rule:nonzero;stroke:none"
       clip-path="url(#clipEmfPath2)"
       d="m 714.33333,-2 v 1009 h -8.66666 V -2 Z"
       id="path93"
       transform="matrix(0.08597981,0,0,0.08597981,65.505868,75.312778)" />
    <path
       style="fill:#2c61ab;fill-opacity:1;fill-rule:nonzero;stroke:none"
       clip-path="url(#clipEmfPath2)"
       d="m 723,-2 v 1009 h -8.66667 V -2 Z"
       id="path94"
       transform="matrix(0.08597981,0,0,0.08597981,65.505868,75.312778)" />
    <path
       style="fill:#2c62ac;fill-opacity:1;fill-rule:nonzero;stroke:none"
       clip-path="url(#clipEmfPath2)"
       d="M 731.33333,-2 V 1007 H 723 V -2 Z"
       id="path95"
       transform="matrix(0.08597981,0,0,0.08597981,65.505868,75.312778)" />
    <path
       style="fill:#2b63ad;fill-opacity:1;fill-rule:nonzero;stroke:none"
       clip-path="url(#clipEmfPath2)"
       d="m 740,-2 v 1009 h -8.66667 V -2 Z"
       id="path96"
       transform="matrix(0.08597981,0,0,0.08597981,65.505868,75.312778)" />
    <path
       style="fill:#2b64ad;fill-opacity:1;fill-rule:nonzero;stroke:none"
       clip-path="url(#clipEmfPath2)"
       d="M 748.66667,-2 V 1007 H 740 V -2 Z"
       id="path97"
       transform="matrix(0.08597981,0,0,0.08597981,65.505868,75.312778)" />
    <path
       style="fill:#2a65ae;fill-opacity:1;fill-rule:nonzero;stroke:none"
       clip-path="url(#clipEmfPath2)"
       d="m 757.33333,-2 v 1009 h -8.66666 V -2 Z"
       id="path98"
       transform="matrix(0.08597981,0,0,0.08597981,65.505868,75.312778)" />
    <path
       style="fill:#2a67af;fill-opacity:1;fill-rule:nonzero;stroke:none"
       clip-path="url(#clipEmfPath2)"
       d="m 765.66667,-2 v 1009 h -8.33334 V -2 Z"
       id="path99"
       transform="matrix(0.08597981,0,0,0.08597981,65.505868,75.312778)" />
    <path
       style="fill:#2a68b0;fill-opacity:1;fill-rule:nonzero;stroke:none"
       clip-path="url(#clipEmfPath2)"
       d="m 774.33333,-2 v 1009 h -8.66666 V -2 Z"
       id="path100"
       transform="matrix(0.08597981,0,0,0.08597981,65.505868,75.312778)" />
    <path
       style="fill:#2969b1;fill-opacity:1;fill-rule:nonzero;stroke:none"
       clip-path="url(#clipEmfPath2)"
       d="m 783,-2 v 1009 h -8.66667 V -2 Z"
       id="path101"
       transform="matrix(0.08597981,0,0,0.08597981,65.505868,75.312778)" />
    <path
       style="fill:#296ab1;fill-opacity:1;fill-rule:nonzero;stroke:none"
       clip-path="url(#clipEmfPath2)"
       d="M 791.33333,-2 V 1007 H 783 V -2 Z"
       id="path102"
       transform="matrix(0.08597981,0,0,0.08597981,65.505868,75.312778)" />
    <path
       style="fill:#286bb2;fill-opacity:1;fill-rule:nonzero;stroke:none"
       clip-path="url(#clipEmfPath2)"
       d="m 800,-2 v 1009 h -8.66667 V -2 Z"
       id="path103"
       transform="matrix(0.08597981,0,0,0.08597981,65.505868,75.312778)" />
    <path
       style="fill:#286cb3;fill-opacity:1;fill-rule:nonzero;stroke:none"
       clip-path="url(#clipEmfPath2)"
       d="M 808.66667,-2 V 1007 H 800 V -2 Z"
       id="path104"
       transform="matrix(0.08597981,0,0,0.08597981,65.505868,75.312778)" />
    <path
       style="fill:#276db4;fill-opacity:1;fill-rule:nonzero;stroke:none"
       clip-path="url(#clipEmfPath2)"
       d="m 817,-2 v 1009 h -8.33333 V -2 Z"
       id="path105"
       transform="matrix(0.08597981,0,0,0.08597981,65.505868,75.312778)" />
    <path
       style="fill:#276eb5;fill-opacity:1;fill-rule:nonzero;stroke:none"
       clip-path="url(#clipEmfPath2)"
       d="M 825.66667,-2 V 1007 H 817 V -2 Z"
       id="path106"
       transform="matrix(0.08597981,0,0,0.08597981,65.505868,75.312778)" />
    <path
       style="fill:#266fb5;fill-opacity:1;fill-rule:nonzero;stroke:none"
       clip-path="url(#clipEmfPath2)"
       d="m 834.33333,-2 v 1009 h -8.66666 V -2 Z"
       id="path107"
       transform="matrix(0.08597981,0,0,0.08597981,65.505868,75.312778)" />
    <path
       style="fill:#2670b6;fill-opacity:1;fill-rule:nonzero;stroke:none"
       clip-path="url(#clipEmfPath2)"
       d="m 843,-2 v 1009 h -8.66667 V -2 Z"
       id="path108"
       transform="matrix(0.08597981,0,0,0.08597981,65.505868,75.312778)" />
    <path
       style="fill:#2671b7;fill-opacity:1;fill-rule:nonzero;stroke:none"
       clip-path="url(#clipEmfPath2)"
       d="M 851.33333,-2 V 1007 H 843 V -2 Z"
       id="path109"
       transform="matrix(0.08597981,0,0,0.08597981,65.505868,75.312778)" />
    <path
       style="fill:#2572b8;fill-opacity:1;fill-rule:nonzero;stroke:none"
       clip-path="url(#clipEmfPath2)"
       d="m 860,-2 v 1009 h -8.66667 V -2 Z"
       id="path110"
       transform="matrix(0.08597981,0,0,0.08597981,65.505868,75.312778)" />
    <path
       style="fill:#2573b9;fill-opacity:1;fill-rule:nonzero;stroke:none"
       clip-path="url(#clipEmfPath2)"
       d="M 868.66667,-2 V 1007 H 860 V -2 Z"
       id="path111"
       transform="matrix(0.08597981,0,0,0.08597981,65.505868,75.312778)" />
    <path
       style="fill:#2474b9;fill-opacity:1;fill-rule:nonzero;stroke:none"
       clip-path="url(#clipEmfPath2)"
       d="m 877,-2 v 1009 h -8.33333 V -2 Z"
       id="path112"
       transform="matrix(0.08597981,0,0,0.08597981,65.505868,75.312778)" />
    <path
       style="fill:#2475ba;fill-opacity:1;fill-rule:nonzero;stroke:none"
       clip-path="url(#clipEmfPath2)"
       d="M 885.66667,-2 V 1007 H 877 V -2 Z"
       id="path113"
       transform="matrix(0.08597981,0,0,0.08597981,65.505868,75.312778)" />
    <path
       style="fill:#2376bb;fill-opacity:1;fill-rule:nonzero;stroke:none"
       clip-path="url(#clipEmfPath2)"
       d="m 894.33333,-2 v 1009 h -8.66666 V -2 Z"
       id="path114"
       transform="matrix(0.08597981,0,0,0.08597981,65.505868,75.312778)" />
    <path
       style="fill:#2377bc;fill-opacity:1;fill-rule:nonzero;stroke:none"
       clip-path="url(#clipEmfPath2)"
       d="m 902.66667,-2 v 1009 h -8.33334 V -2 Z"
       id="path115"
       transform="matrix(0.08597981,0,0,0.08597981,65.505868,75.312778)" />
    <path
       style="fill:#2278bd;fill-opacity:1;fill-rule:nonzero;stroke:none"
       clip-path="url(#clipEmfPath2)"
       d="m 911.33333,-2 v 1009 h -8.66666 V -2 Z"
       id="path116"
       transform="matrix(0.08597981,0,0,0.08597981,65.505868,75.312778)" />
    <path
       style="fill:#2279bd;fill-opacity:1;fill-rule:nonzero;stroke:none"
       clip-path="url(#clipEmfPath2)"
       d="m 920,-2 v 1009 h -8.66667 V -2 Z"
       id="path117"
       transform="matrix(0.08597981,0,0,0.08597981,65.505868,75.312778)" />
    <path
       style="fill:#217abe;fill-opacity:1;fill-rule:nonzero;stroke:none"
       clip-path="url(#clipEmfPath2)"
       d="M 928.66667,-2 V 1007 H 920 V -2 Z"
       id="path118"
       transform="matrix(0.08597981,0,0,0.08597981,65.505868,75.312778)" />
    <path
       style="fill:#217bbf;fill-opacity:1;fill-rule:nonzero;stroke:none"
       clip-path="url(#clipEmfPath2)"
       d="m 937,-2 v 1009 h -8.33333 V -2 Z"
       id="path119"
       transform="matrix(0.08597981,0,0,0.08597981,65.505868,75.312778)" />
    <path
       style="fill:#217bbf;fill-opacity:1;fill-rule:nonzero;stroke:none"
       clip-path="url(#clipEmfPath2)"
       d="M 937,1007 V -2 h 4.66667 v 1009 z"
       id="path120"
       transform="matrix(0.08597981,0,0,0.08597981,65.505868,75.312778)" />
    <path
       style="fill:#383737;fill-opacity:1;fill-rule:nonzero;stroke:none;stroke-width:0.0859797"
       d="m 74.447769,174.27555 1.089078,1.03176 0.401239,0.40124 v 0.57319 2.2928 0.68784 l -0.544541,0.40124 -1.862896,1.34701 -0.343918,0.25794 H 72.75683 66.881543 65.534526 v -1.34701 -4.04105 -2.69404 -4.04105 -1.34701 h 1.347017 5.158789 0.458559 l 0.37258,0.28659 1.719597,1.34702 0.515879,0.40124 v 0.65918 2.29279 0.34392 l -0.171961,0.31526 z m -2.464757,-1.08908 0.4299,-0.77382 v -1.2897 l -0.831138,-0.63051 h -3.353213 v 2.69403 z m -3.754451,2.69404 v 2.69403 h 4.069711 l 0.945779,-0.68784 v -1.03176 l -1.031758,-0.97443 z"
       id="path121" />
    <path
       style="fill:#383737;fill-opacity:1;fill-rule:nonzero;stroke:none;stroke-width:0.0859797"
       d="m 78.632121,169.14542 v -1.34701 h 2.694031 v 1.34701 8.7986 l 0.773819,0.63052 h 3.668472 1.347018 v 2.69403 h -1.347018 -4.15569 -0.48722 l -0.37258,-0.31525 -1.633615,-1.34702 -0.487217,-0.40125 v -0.63051 z"
       id="path122" />
    <path
       style="fill:#383737;fill-opacity:1;fill-rule:nonzero;stroke:none;stroke-width:0.0859797"
       d="m 89.809496,169.14542 v -1.34701 h 2.694034 v 1.34701 8.74128 l 1.003096,0.68784 h 3.009295 l 1.003096,-0.68784 v -8.74128 -1.34701 h 2.694033 v 1.34701 9.45778 0.68784 l -0.573197,0.42989 -1.920213,1.31837 -0.343922,0.22927 H 96.945821 93.07673 92.675488 l -0.343918,-0.22927 -1.948875,-1.31837 -0.573199,-0.42989 v -0.68784 z"
       id="path123" />
    <path
       style="fill:#383737;fill-opacity:1;fill-rule:nonzero;stroke:none;stroke-width:0.0859797"
       d="m 111.04651,167.79841 h 1.34702 v 2.69403 h -1.34702 -5.44539 v 2.69403 h 3.75445 1.34702 v 2.69404 h -1.34702 -3.75445 v 2.03485 l 0.83114,0.65918 h 4.61425 1.34702 v 2.69403 h -1.34702 -5.10147 -0.45856 l -0.37258,-0.28659 -1.69093,-1.34703 -0.51588,-0.40123 v -0.65918 -2.69403 -2.69404 -4.04105 -1.34701 h 1.34701 z"
       id="path124" />
    <path
       style="fill:#383737;fill-opacity:1;fill-rule:nonzero;stroke:none;stroke-width:0.0859797"
       d="m 131.10846,174.27555 1.08908,1.03176 0.4299,0.40124 v 0.57319 2.2928 0.68784 l -0.5732,0.40124 -1.83423,1.34701 -0.37258,0.25794 h -0.4299 -5.84663 -1.34701 v -1.34701 -4.04105 -2.69404 -4.04105 -1.34701 h 1.34701 5.13013 0.45856 l 0.37258,0.28659 1.74826,1.34702 0.51587,0.40124 v 0.65918 2.29279 0.34392 l -0.20061,0.31526 z m -2.46475,-1.08908 0.45856,-0.77382 v -1.2897 l -0.8598,-0.63051 h -3.32455 v 2.69403 z m -3.72579,2.69404 v 2.69403 h 4.06971 l 0.91712,-0.68784 v -1.03176 l -1.03176,-0.97443 z"
       id="path125" />
    <path
       style="fill:#383737;fill-opacity:1;fill-rule:nonzero;stroke:none;stroke-width:0.0859797"
       d="m 135.32148,169.14542 v -1.34701 h 2.69403 v 1.34701 10.77614 1.34701 h -2.69403 v -1.34701 z"
       id="path126" />
    <path
       style="fill:#383737;fill-opacity:1;fill-rule:nonzero;stroke:none;stroke-width:0.0859797"
       d="m 147.53061,167.79841 h 2.49342 1.34701 v 2.69403 h -1.34701 -2.49342 v 9.42912 1.34701 h -2.69403 v -1.34701 -9.42912 h -2.52208 -1.34702 v -2.69403 h 1.34702 2.52208 z"
       id="path127" />
    <path
       style="fill:#383737;fill-opacity:1;fill-rule:nonzero;stroke:none;stroke-width:0.0859797"
       d="m 162.3478,169.43202 1.06042,0.88846 -1.74826,2.06351 -1.03176,-0.8598 -1.23238,-1.03175 h -2.03485 l -0.77382,0.63051 v 0.74516 l 5.81797,3.2959 0.65918,0.37258 v 0.80248 2.23547 0.68784 l -0.54454,0.40124 -1.8629,1.34701 -0.34391,0.25794 h -0.4299 -3.0093 -0.4299 l -0.34391,-0.25794 -1.8629,-1.34701 -1.08909,-0.80248 1.60496,-2.17816 1.06042,0.80248 1.51898,1.08908 h 2.09217 l 0.94578,-0.68784 v -0.74516 l -5.81796,-3.29589 -0.65918,-0.40124 v -0.77382 -2.17815 -0.65918 l 0.48722,-0.40124 1.66227,-1.34702 0.37258,-0.28659 h 0.45856 3.0093 0.45855 l 0.40125,0.28659 z"
       id="path128" />
  </g>
</svg>
